<?xml version="1.0" encoding="utf-8"?>
<!-- Generator: Adobe Illustrator 25.2.1, SVG Export Plug-In . SVG Version: 6.00 Build 0)  -->
<svg version="1.1" id="Layer_1" xmlns="http://www.w3.org/2000/svg" xmlns:xlink="http://www.w3.org/1999/xlink" x="0px" y="0px"
	 viewBox="0 0 150 150" style="enable-background:new 0 0 150 150;" xml:space="preserve">
<style type="text/css">
	.st0{fill-rule:evenodd;clip-rule:evenodd;}
</style>
<path d="M-366.3-137.8h-26.5l-29.8-44.4c-0.9-1.4-2.7-1.7-3.9-0.7s-1.5,2.9-0.6,4.3l27.4,40.8h-61.4l27.4-40.8
	c0.9-1.4,0.6-3.3-0.6-4.3c-1.2-1-3-0.7-3.9,0.7l-29.8,44.4h-26.5c-4.6,0-8.4,4.1-8.4,9.1v6.1c0,5,3.7,9.1,8.4,9.1h3.2l6.7,50.9
	c1,7.5,6.9,13,13.8,13.1h81c6.9,0,12.8-5.6,13.8-13.1l6.7-50.9h3.2c4.6,0,8.4-4.1,8.4-9.1v-6.1
	C-357.9-133.7-361.7-137.8-366.3-137.8z M-380.2-61.1c-0.6,4.7-4.2,8.2-8.5,8.2h-83.4c-4.3,0-7.9-3.5-8.5-8.2l-6.7-52.3h113.9
	L-380.2-61.1z M-361.7-121.7c0,2.2-1.3,4-2.8,4h-131c-1.6,0-2.8-1.8-2.8-4v-8.1c0-2.2,1.3-4,2.8-4h131c1.6,0,2.8,1.8,2.8,4V-121.7z"
	/>
<path d="M-210.9-280.9l-14.1-1.4v-37.4c0-0.9-0.7-1.6-1.6-1.6c-0.2,0-0.4,0-0.6,0.1l-71.1,29.4h-33.8l0,0c-0.9,0-1.6,0.7-1.6,1.6
	v40.4c0,0.9,0.7,1.6,1.6,1.6h6.4l6,40.6c0.1,0.8,0.8,1.3,1.5,1.3h17.1c0.9,0,1.6-0.7,1.6-1.6c0-0.1,0-0.2,0-0.2l-5.9-40.1h7.2
	l71.1,29.4c0.8,0.3,1.7,0,2-0.8c0.1-0.2,0.1-0.4,0.1-0.6v-37.4l14.1-1.4c0.8-0.1,1.4-0.7,1.4-1.5v-18.6
	C-209.5-280.2-210.1-280.8-210.9-280.9z M-330.5-288.7h31v37.2h-31V-288.7z M-302.8-209.6h-13.9l-5.7-38.8h13.9L-302.8-209.6z
	 M-228.1-222.7l-68.2-28.2v-38.3l68.2-28.2L-228.1-222.7L-228.1-222.7z M-212.6-262.1l-12.4,1.2v-18.3l12.4,1.2V-262.1z"/>
<g>
	<path d="M-220.7-108.8c0-5.8-3.1-11-8-13.9v-24.4c0-0.3,0-0.6-0.2-0.9c-0.1-0.2-0.2-0.3-0.3-0.4c-0.1-0.1-0.1-0.2-0.2-0.3
		s-0.1-0.1-0.2-0.1c-0.4-0.3-0.9-0.6-1.5-0.6c-0.3,0-0.5,0.1-0.8,0.2h-0.1l0,0l0,0l-45.9,19.1h-33.2c-1.3,0-2.3,1-2.3,2.3v2.6
		c-8.1,1.1-14.3,8-14.3,16.4s6.3,15.3,14.3,16.4v2.6c0,1.3,1,2.3,2.3,2.3h6.7c2,4.2,11.3,24.2,15.1,32.3c3.2,6.8,8.3,6.9,11.5,6.8
		h6.9h0.1c1.7,0,3.6,0,4.6-1.7c1.1-1.7,0.4-3.8-1.2-7.1c-3.5-7.2-11.1-23.8-14.2-30.3h3.6l45.9,19.1c0.3,0.1,0.6,0.2,0.9,0.2
		c0.4,0,0.8-0.1,1.1-0.3c0.1-0.1,0.2-0.1,0.2-0.2c0.3-0.2,0.6-0.5,0.8-0.9l0,0c0.1-0.2,0.1-0.4,0.1-0.6c0-0.1,0.1-0.2,0.1-0.3l0,0
		l0,0v-24.4C-223.8-97.8-220.7-103-220.7-108.8z M-224.2-108.8c0,3.8-1.7,7.3-4.5,9.7v-19.4C-225.9-116.1-224.2-112.6-224.2-108.8z
		 M-275.6-126l42.3-17.6v69.5l-42.3-17.6V-126z M-323-108.8c0-5.8,4.2-10.7,9.7-11.8v23.5C-318.8-98.2-323-103-323-108.8z
		 M-308.7-125.5h29.6v33.3h-29.6V-125.5z M-271.5-55.1c0.5,1,0.8,1.6,0.9,2.1c-0.2,0-0.3,0-0.5,0h-6.9c-3.1,0-5.2,0-7.1-4.1
		c-3.3-7.2-11.1-23.8-14.2-30.4h12.6C-284.7-83.3-275.5-63.3-271.5-55.1z"/>
	<path d="M-219-134.7c-0.7-0.6-1.9-0.5-2.5,0.3s-0.5,1.9,0.3,2.5c7,5.7,11,14.1,11,23.1c0,8.9-3.9,17.2-10.8,22.9
		c-0.7,0.6-0.8,1.7-0.2,2.5c0.3,0.4,0.8,0.6,1.3,0.6c0.4,0,0.8-0.1,1.1-0.4c7.7-6.3,12.1-15.7,12.1-25.6
		C-206.7-119-211.2-128.4-219-134.7z"/>
	<path d="M-208.3-144.2c-0.7-0.6-1.8-0.5-2.5,0.3c-0.6,0.7-0.5,1.8,0.3,2.5c9.9,8,15.6,19.9,15.6,32.6c0,12.6-5.6,24.4-15.3,32.4
		c-0.7,0.6-0.8,1.7-0.2,2.5c0.3,0.4,0.8,0.6,1.3,0.6c0.4,0,0.8-0.1,1.1-0.4c10.5-8.7,16.5-21.4,16.5-35.1
		C-191.4-122.6-197.5-135.5-208.3-144.2z"/>
</g>
<g>
	<path d="M-170.7-331.2c0,1,0.8,1.7,1.7,1.7h11.4v15.4h-8.2c-1,0-1.7,0.8-1.7,1.7v100.9c0,1,0.8,1.7,1.7,1.7h2
		c13.5,0,26.9,3.3,39.9,9.8c7,3.5,14.5,5.3,22.3,5.3s15.4-1.8,22.3-5.3c13-6.5,26.4-9.8,39.8-9.8h2c0.5,0,0.9-0.2,1.2-0.5
		s0.5-0.8,0.5-1.2l-0.1-100.9c0-1-0.8-1.7-1.7-1.7h-8.2v-15.4h11.4c1,0,1.7-0.8,1.7-1.7c0-1-0.8-1.7-1.7-1.7h-134.8
		C-169.9-333-170.7-332.2-170.7-331.2z M-39.1-213.3h-0.3c-14,0-27.9,3.4-41.4,10.2c-6.5,3.3-13.5,4.9-20.8,4.9s-14.3-1.7-20.8-4.9
		c-13.5-6.8-27.4-10.2-41.4-10.2h-0.3v-97.4h124.9L-39.1-213.3z M-49-314.1h-105v-15.4h105V-314.1z"/>
	<path d="M-70.7-251.2c3-2.9,9.9-10.5,9.9-21c0-6.8-5.6-12.4-12.4-12.4c-6.8,0-12.4,5.6-12.4,12.4c0,9.3,7.1,17.8,10,21l-15.9,16.7
		c-0.3,0.3-0.5,0.8-0.5,1.2c0,0.5,0.2,0.9,0.5,1.3c0.3,0.3,0.8,0.5,1.2,0.5c0.5,0,0.9-0.2,1.3-0.5l15.8-16.6l15.8,16.6
		c0.3,0.4,0.8,0.5,1.3,0.5c0.4,0,0.9-0.2,1.2-0.5c0.4-0.3,0.5-0.8,0.5-1.3c0-0.4-0.2-0.9-0.5-1.2L-70.7-251.2z M-73.2-281.1
		c4.9,0,8.9,4,8.9,8.9c0,9.1-6.2,16-8.8,18.6c-2.6-2.8-9-10.6-9-18.6C-82.1-277.1-78.1-281.1-73.2-281.1z"/>
	<path d="M-96.2-269.6h-13.3v-13.2c0-1-0.8-1.7-1.7-1.7h-19.6c-1,0-1.7,0.8-1.7,1.7v13.2h-13.2c-1,0-1.7,0.8-1.7,1.7v19.6
		c0,1,0.8,1.7,1.7,1.7h13.2v13.2c0,1,0.8,1.7,1.7,1.7h19.6c1,0,1.7-0.8,1.7-1.7v-13.2h13.2c1,0,1.7-0.8,1.7-1.7v-19.6
		C-94.5-268.8-95.3-269.6-96.2-269.6z M-97.9-250.1h-13.2c-1,0-1.7,0.8-1.7,1.7v13.2h-16.1v-13.2c0-1-0.8-1.7-1.7-1.7h-13.2v-16.1
		h13.2c1,0,1.7-0.8,1.7-1.7v-13.2h16.1v13.2c0,1,0.8,1.7,1.7,1.7h13.2V-250.1z"/>
</g>
<g transform="translate(0,-952.36218)">
	<path d="M-509.3,628c-0.9,0-1.6,0.7-1.6,1.6c0,0.9,0.7,1.6,1.6,1.6h21c8.2,20.7,16.4,41.3,24.6,62l-7.6,18.5
		c-0.4,1,0.4,2.3,1.5,2.2h78.8c0.8,0,1.6-0.8,1.6-1.6s-0.8-1.6-1.6-1.6h-76.5l6.6-16.1l77.8-6.3c0.6-0.1,1.2-0.6,1.4-1.2l9.5-41.4
		c0.2-0.9-0.6-1.9-1.5-1.9h-106.1l-5.9-14.9c-0.2-0.6-0.8-1-1.5-1h-22.1V628z M-478.6,647.1h37v20.7h-28.9L-478.6,647.1z
		 M-438.4,647.1h25.2v20.7h-25.2V647.1z M-410,647.1h34.3l-4.7,20.7h-29.5L-410,647.1L-410,647.1z M-469.1,671h27.6v19l-19.5,1.6
		L-469.1,671z M-438.4,671h25.2v16.7l-25.2,2V671z M-410,671h28.8l-3.3,14.4l-25.5,2V671z M-454.1,723.5c-6.9,0-12.6,5.7-12.6,12.7
		s5.7,12.7,12.6,12.7s12.6-5.7,12.6-12.7S-447.2,723.5-454.1,723.5z M-406.9,723.5c-6.9,0-12.6,5.7-12.6,12.7s5.7,12.7,12.6,12.7
		s12.6-5.7,12.6-12.7C-394.3,729.2-399.9,723.5-406.9,723.5z M-454.1,726.7c5.2,0,9.5,4.3,9.5,9.5c0,5.3-4.2,9.5-9.5,9.5
		c-5.2,0-9.5-4.3-9.5-9.5S-459.4,726.7-454.1,726.7z M-406.9,726.7c5.2,0,9.5,4.3,9.5,9.5c0,5.3-4.2,9.5-9.5,9.5
		c-5.2,0-9.5-4.3-9.5-9.5C-416.3,731-412.1,726.7-406.9,726.7z"/>
</g>
<g>
	<path class="st0" d="M15.5-50.8h11.2v-65.7c0-2.9,2.3-5.2,5.4-5.2h9.6c3.9-14.1,16.4-24.5,31.2-25.2v-13.2v-10.5v-0.2l0,0
		c0.2-1.6,1.4-2.9,3-2.9h17.6c1.8,0,3,1.2,3,3v10.5c0,1.8-1.2,3-3,3H76c-0.2,0-0.2,0-0.4,0v10c15.4,0.4,28.6,10.7,32.7,25.4h9.6
		c2.9,0,5.4,2.3,5.4,5.2v65.7h11.2c2.7,0,4.8,2.1,4.8,4.8v14.8c0,2.7-2.1,4.8-4.8,4.8h-119c-2.7,0-4.8-2.1-4.8-4.8v-14.8
		C10.7-48.6,12.8-50.8,15.5-50.8z M29.4-110.6h91.2v-5.9c0-1.4-1.2-2.5-2.7-2.5H32c-1.4,0-2.7,1.1-2.7,2.5v5.9H29.4z M120.7-107.9
		H29.5v57.1h8.9v-45.3c0-1.8,1.4-3,3-3h10.7c1.6,0,2.9,1.2,2.9,3v45.3h11.8v-45.3c0-1.8,1.2-3,3-3h10.5c1.6,0,3,1.2,3,3v45.3h11.6
		v-45.3c0-1.8,1.4-3,3-3h10.7c1.6,0,3,1.2,3,3v45.3h8.9v-57.1H120.7z M76-170.9h17.5c0.2,0,0.4,0.2,0.4,0.4v10.5
		c0,0.2-0.2,0.4-0.4,0.4H76c-0.2,0-0.4-0.2-0.4-0.4v-10.5C75.7-170.7,75.9-170.9,76-170.9z M44.4-121.6h61.1
		c-3.9-13.2-16.1-22.7-30.5-22.7C60.7-144.3,48.5-134.9,44.4-121.6z M41-50.8h11.2v-45.3c0-0.2,0-0.4-0.2-0.4H41.3
		c-0.2,0-0.4,0.2-0.4,0.4L41-50.8L41-50.8z M69.4-50.8h11.2v-45.3c0-0.2-0.2-0.4-0.4-0.4H69.7c-0.2,0-0.4,0.2-0.4,0.4v45.3H69.4z
		 M97.6-50.8H109v-45.3c0-0.2-0.2-0.4-0.4-0.4H97.9c-0.2,0-0.4,0.2-0.4,0.4L97.6-50.8L97.6-50.8z M15.5-48.1h119.1
		c1.1,0,2.1,0.9,2.1,2.1v14.8c0,1.1-1.1,2.1-2.1,2.1H15.5c-1.2,0-2.1-1.1-2.1-2.1V-46C13.4-47.2,14.3-48.1,15.5-48.1z"/>
	<polygon class="st0" points="26.4,-39.5 123.7,-39.5 123.7,-36.8 26.4,-36.8 	"/>
</g>
<path d="M68.2-324.8c-0.2,0-0.4,0.1-0.6,0.3l-61,37.9c-0.5,0.3-0.8,0.8-0.8,1.4v8.3c0,0.9,0.7,1.6,1.6,1.6h122
	c0.9,0,1.6-0.7,1.6-1.6v-8.3c0-0.6-0.3-1.1-0.8-1.4l-61-37.9C69-324.8,68.6-324.9,68.2-324.8z M68.5-321.2l59.3,36.8v5.7H9.1v-5.7
	L68.5-321.2z M68.5-303.8c-4.3,0-7.8,3.5-7.8,7.8s3.5,7.8,7.8,7.8s7.8-3.5,7.8-7.8C76.2-300.3,72.7-303.8,68.5-303.8z M68.5-300.5
	c2.5,0,4.5,2,4.5,4.5s-2,4.5-4.5,4.5s-4.5-2-4.5-4.5S66-300.5,68.5-300.5z M20.4-269.4c-0.8,0.1-1.5,0.8-1.4,1.7v41.8H7.5
	c-0.1,0-0.1,0-0.2,0c-0.8,0.1-1.5,0.8-1.5,1.6v6.6h-6.6c-0.9,0-1.6,0.7-1.6,1.6v11.5c0,0.9,0.7,1.7,1.6,1.7s1.7-0.7,1.7-1.6l0,0
	v-9.9h6.6c0.9,0,1.6-0.7,1.6-1.6v-6.6h118.7v6.6c0,0.9,0.7,1.6,1.6,1.6h6.6v9.9c0,0.9,0.7,1.7,1.6,1.7c0.9,0,1.7-0.7,1.7-1.6l0,0
	v-11.5c0-0.9-0.7-1.6-1.6-1.6h-6.6v-6.6c0-0.9-0.7-1.6-1.6-1.6H118v-41.8c0-0.9-0.7-1.7-1.6-1.7c-0.1,0-0.2,0-0.3,0
	c-0.8,0.1-1.5,0.8-1.4,1.7v41.8h-9.9v-41.8c0-0.9-0.7-1.7-1.6-1.7c-0.1,0-0.2,0-0.3,0c-0.8,0.1-1.5,0.8-1.4,1.7v41.8H76.8v-41.8
	c0-0.9-0.7-1.7-1.6-1.7c-0.1,0-0.2,0-0.3,0c-0.8,0.1-1.5,0.8-1.4,1.7v41.8h-9.9v-41.8c0-0.9-0.7-1.7-1.6-1.7c-0.1,0-0.2,0-0.3,0
	c-0.8,0.1-1.5,0.8-1.4,1.7v41.8H35.5v-41.8c0-0.9-0.7-1.7-1.6-1.7c-0.1,0-0.2,0-0.3,0c-0.8,0.1-1.5,0.8-1.4,1.7v41.8h-9.9v-41.8
	c0-0.9-0.7-1.7-1.6-1.7C20.6-269.4,20.5-269.4,20.4-269.4z"/>
<g>
	<path d="M195.7,95.7c2.3,0,4.7-0.2,7-0.4c4.5-0.4,9-0.4,13.5-0.3h1.6v1.5c0.5,6.9,5,14.8,12.5,16.6c4,1,9.1-0.8,10.2-4.8
		c0.8-3-0.8-6.4-4.3-9.1c-4.7-3.5-10.3-5.6-16.2-6.2c0.6-5.4,2.1-10.6,4.4-15.5c2.2-4.9,4.7-9.7,7.4-14.4c6.7,1.3,13,4.2,18.3,8.4
		c7.3,5.1,13.5,11.6,18.4,19.1c-5.7,5.2-12.3,9.2-19.6,11.9l0.8,2.1c7.3-2.8,14.1-6.9,19.9-12.1c2.7,4.3,4.2,9.2,4.2,14.3
		c-0.5,6.3-3.4,12.1-8.2,16.2c-4.6,3.9-9.7,7.2-15,9.9c-0.2-0.7-0.4-1.7-0.6-2.7c-0.4-3.5-1.5-6.9-3.1-10.1c-1.2-1.9-2.9-3.4-5-4.2
		c-4.1-1.3-8.2,1.5-10.3,4.7c-1.2,1.9-2.1,3.9-2.8,6.1c-0.5,1.3-1,2.6-1.6,3.8c-0.7,1.7-1.9,3.1-3.5,4.1c-1.4,0.8-3.1,0.5-4.2-0.7
		c-0.2-0.4-0.4-0.7-0.6-1.1c-0.2-0.5-0.5-1-0.8-1.5c-1.9-2.7-5.9-2.5-8.5-0.7c-1.4,1-2.6,2.2-3.7,3.5c-0.7,0.8-1.3,1.5-1.9,2.2
		c-1.5,1.7-3.8,2.4-5.9,1.7c0-0.2,0.1-0.3,0.2-0.5c1-1.9,2.2-3.7,3.6-5.3c1.6-1.9,2.9-3.9,4-6.2c0.4-0.7,0.5-1.4,0.4-2.2
		c-0.4-1.8-2.2-3-4-2.7c-0.9,0.1-1.7,0.4-2.5,0.8l-1.2,0.4c-0.7,0.2-1.7,0.2-1.8,0.3c0.3-0.5,0.7-1,1.1-1.5c0.2-0.2,0.4-0.5,0.6-0.6
		c0.6-0.9,1.3-1.7,2-2.6c0.7-0.9,1.5-1.9,2.2-2.8l0.3-0.4c3.2-3.8,5.7-8,7.4-12.6l-2.2-0.7c-1.7,4.4-4,8.4-7.1,12l-0.3,0.4
		c-0.7,1-1.4,1.9-2.2,2.8l-2,2.6c-0.1,0.2-0.3,0.3-0.4,0.5c-0.8,0.9-2,2.2-1.6,3.4c0.2,0.5,0.5,1,1,1.3c1.1,0.4,2.4,0.4,3.5,0
		c0.5-0.1,0.9-0.3,1.3-0.5c0.6-0.3,1.2-0.5,1.9-0.6c0.8,0,1.5,0.3,1.6,0.8c0,0.3-0.1,0.7-0.2,1c-1,2-2.2,3.9-3.7,5.7
		c-1.4,1.8-2.5,3.8-3.4,5.9c-0.4,0.7-0.5,1.6-0.1,2.3c0.3,0.4,0.7,0.8,1.1,1c0.7,0.4,1.6,0.6,2.4,0.6c2.2-0.1,4.3-1.1,5.9-2.7
		c0.7-0.7,1.4-1.4,2.1-2.2c0.9-1.2,2-2.2,3.2-3.1c1.7-1.1,4.4-1.4,5.5,0.2c0.2,0.3,0.4,0.7,0.6,1.1c0.2,0.5,0.5,1.1,0.8,1.5
		c1.7,2.1,4.6,2.6,7,1.3c2-1.2,3.5-2.9,4.4-5.1c0.6-1.3,1.1-2.7,1.7-4c0.7-2,1.6-3.8,2.6-5.6c1.7-2.6,4.9-4.7,7.7-3.8
		c1.6,0.7,3,1.9,3.9,3.4c1.5,2.9,2.4,6,2.8,9.2c0.6,3.4,0.9,5,2.4,4.8c6.1-2.8,11.8-6.4,16.9-10.8c5.1-4.5,8.3-10.9,8.8-17.7
		c0-5.6-1.7-11.2-4.8-15.9c6.4-6.1,11.8-13.2,15.9-21c8-15,17.2-35,16.8-56.7c0.1-0.9-0.2-1.7-0.8-2.3c-0.5-0.4-1.1-0.6-1.7-0.6
		c-8.2-0.8-17.1,1.6-27.3,7.2c-18,10.3-33.1,25.2-43.5,43.2c-1.4-0.1-2.8-0.1-4.2,0c-8,1-15.3,4.9-20.5,11
		c-5,5.9-9.3,12.4-12.8,19.3c-1.2,2.2-0.5,3.4,0,4C194,95.7,194.9,95.9,195.7,95.7z M275.4,19.6c9.8-5.4,18.3-7.6,26.1-6.9h0.5
		c0.1,0.2,0.1,0.5,0,0.7c0.3,21.2-8.7,40.8-16.6,55.6c-4,7.5-9.1,14.3-15.2,20.1c-5-7.5-11.3-14-18.7-19.2
		c-5.4-4.2-11.6-7.2-18.3-8.6C243.4,43.9,258,29.6,275.4,19.6z M235,101.1c1,0.8,4.4,3.7,3.5,6.8c-0.7,2.8-4.6,3.9-7.5,3.2
		c-6.5-1.5-10.3-8.5-10.8-14.6v-1.1C225.5,96,230.6,98,235,101.1z M195.2,92.3c3.4-6.8,7.5-13.1,12.4-18.9
		c4.9-5.7,11.7-9.3,19.1-10.2c0.6,0,1.2,0,1.8,0h1.2c-2.6,4.5-4.9,9.1-7,13.9c-2.5,5.1-4,10.5-4.6,16.1h-1.6
		c-4.6-0.2-9.2-0.1-13.8,0.3c-2.3,0.1-4.6,0.3-6.9,0.4c-0.2,0.1-0.5,0.1-0.8,0C194.9,93.2,195,92.7,195.2,92.3L195.2,92.3z"/>
</g>
<g>
	<path d="M-463.8,96.2l1.4-1.5c-20.4-17.2-20-40.3-12.9-56.2c7.4-16.6,25.7-31.8,49.7-28.5c12.5,1.6,23.8,8.5,31,18.9
		c5.2,7.7,8.2,17.7,9,29.7c0.6,7-0.1,14.1-2.1,20.9c-3.8,11.9-13.2,19.1-23.8,18.6c-4.9-0.1-9.5-2.7-12.1-6.9
		c-1.6-3-2.4-6.4-2.3-9.8c0-2.2,0.1-4.4,0.5-6.6c2.1-0.3,4.3-0.7,6.4-1.3c3.7-0.9,8.3-2.5,11-6.4c1.6-2.3,2.2-5.2,1.6-8
		c-0.4-2-1.5-3.7-3.2-4.7c-1.5-0.9-3.4-1.1-5.1-0.6c-3.5,1.3-6.4,3.8-8.1,7.2c-2.1,3.7-3.5,7.7-4.3,11.9c-3.4,0.4-6.9,0.5-10.3,0.2
		c-1.3-4.4-3.5-8.4-6.7-11.7c-2.3-2.8-5.5-4.5-9.1-4.9c-4-0.1-7.4,2.8-7.9,6.8c-0.1,3.9,3.2,7.4,8.9,9.2c4.3,1.4,8.7,2.3,13.2,2.7
		c0.6,2.7,0.7,5.4,0.4,8.2c-0.8,7.3-5.8,13.5-12.7,16c-0.8,0.2-1.7,0.4-2.6,0.6c-1.8,0.3-3.5,0.8-5.1,1.6c-1.9,0.7-3.3,2.4-3.6,4.5
		c0,2,1,3.8,2.7,4.8c2.7,2.1,10.3,1.3,22.6-0.2c11.8-1.4,26.5-3.2,30.2,0.4c0.6,0.6,0.9,1.5,0.8,2.3c-0.1,0.6-0.4,1.2-0.9,1.5
		c-3,2.6-12.1,2.7-15.1,2.5l-3.3-0.3c-6.9-0.7-14-1.5-19.9,3.5c-1.5,1.3-2.1,2.6-1.7,3.8c1,2.8,7.5,3.4,11.4,3.5c0.6,0,1.3,0,2,0
		c2.8,0,6.4,0,8.2,1.5c1.3,1.2,1.8,2.4,1.6,3.4c-0.3,1-1.5,1.8-3.2,2.1c-4.5,0.7-9,0.4-13.3-0.8l-0.6,2.1c4.6,1.3,9.5,1.6,14.3,0.9
		c2.2-0.1,4.1-1.5,4.9-3.5c0.4-2.1-0.4-4.3-2.1-5.5c-2.5-2.1-6.4-2.1-9.6-2.1c-0.7,0-1.3,0-1.9,0c-5.4-0.1-9.1-1.2-9.4-2.1
		c0-0.1,0-0.6,1-1.5c5.2-4.4,11.9-3.7,18.3-3.1l3.4,0.3c0,0,12.2,0.8,16.6-3c0.9-0.7,1.5-1.8,1.6-3c0.1-1.6-0.5-3.1-1.8-4.1
		c-4.5-4.2-18.4-2.6-32-1c-9.3,1.1-18.9,2.2-21.1,0.6c-1.1-0.6-1.7-1.7-1.8-2.9c0-1,1-2,2.5-2.8c1.5-0.7,3-1.1,4.6-1.4
		c0.9-0.2,1.8-0.4,2.8-0.6c7.3-2.1,13.2-9.4,14.3-17.8c0.3-2.8,0.2-5.6-0.3-8.3c3.1,0.2,6.3,0.1,9.4-0.2c-0.3,2.1-0.4,4.2-0.4,6.4
		c-0.1,3.8,0.8,7.6,2.6,10.9c3,4.8,8.2,7.8,13.8,7.9c11.6,0.6,21.8-7.3,25.9-20c2.1-7,2.8-14.4,2.1-21.7
		c-0.8-12.4-3.9-22.7-9.3-30.8C-400.2,16.9-412,9.7-425.2,8c-25.1-3.6-44.2,12.3-51.9,29.7C-486.7,58-481.2,82.1-463.8,96.2z
		 M-420.9,62.1c1.4-2.8,3.9-5,6.8-6.2c0.4-0.1,0.9-0.2,1.3-0.2c0.7,0,1.5,0.2,2.1,0.6c1.2,0.8,2,2,2.2,3.3c0.5,2.2,0,4.5-1.2,6.4
		c-2.4,3.3-6.5,4.7-9.8,5.6c-1.8,0.4-3.6,0.8-5.5,1.1C-424.1,69-422.8,65.4-420.9,62.1z M-451.7,70.6c-1.8-0.6-7.6-2.8-7.4-7.1
		c0.4-2.8,2.7-4.8,5.5-4.9h0.2c3,0.4,5.8,1.9,7.7,4.2c2.7,2.9,4.7,6.3,5.9,10.1c-4.1-0.4-8.1-1.2-12-2.5L-451.7,70.6z"/>
</g>
<g>
	<path d="M-123.4,103.6c10.2-0.7,20.4-0.9,30.7-0.6c3.9,0,7.8,0.1,11.7,0.1l20.2-0.1h2.2c4.4,0.2,10.3,0.4,12.5-4.9
		c0.9-2.7,0.3-5.8-1.7-7.9c-4-4.5-10.2-4.1-15.6-3.9h-2.7c-5.5,0.1-11,0.3-16.4,0.6c-11.2,0.6-22.5,1.5-33.2,2.7
		c-3,0.3-5.9,0.7-9,1.1l-1.9,0.3c-1.4,0.4-2.8,0.5-4.2,0.4c-0.2,0-0.3-0.1-0.4-0.3c0-0.4,1-1.6,8.2-3.9l1.1-0.4
		c4.7-1.8,9.5-3,14.5-3.6c0.9,0,1.8-0.1,2.7-0.2c3.7-0.2,7.5-0.4,10.5-3.3c3.2-3.6,4.9-8.3,4.5-13.1v-1.4c0-0.5,0-1.1,0-1.6
		c1.6,0.9,3.3,1.5,5.1,1.6c6.2,0.3,12.3-1.4,17.4-4.9c6.6-4.4,10.4-12,10-19.9v-0.7l-0.6-0.3c-1-0.4-2.5,0-5.5,1.1l-1.2,0.4
		l-1.1,0.3c-2.2,0.6-4.5,1.2-6.7,2c-6.9,2.7-15.3,6.4-18.5,13.6c-0.3,0.6-0.5,1.1-0.6,1.7c-0.7-1.4-1.3-2.9-1.8-4.5
		c-0.4-1.2-0.9-2.4-1.5-3.6c3.9-6,4.1-15.9,4.2-21.5c0-0.6,0-1.3,0-2c0-3.4-0.2-9.2,2.1-11c0.9-0.6,2.1-0.8,3.1-0.4
		c1.3,0.3,2.3,1.5,2.5,2.9c0.4,1.6-0.1,3.2-1.3,4.3c-0.5,0.4-1.2,0.4-1.7,0l-1.2,1.9c1.2,0.8,2.9,0.8,4.1,0c1.9-1.6,2.7-4.1,2.2-6.5
		c-0.3-2.2-1.9-4.1-4.1-4.7c-1.7-0.6-3.6-0.3-5.1,0.8c-3.1,2.4-3,8.6-2.9,12.7c0,0.7,0,1.4,0,2c0,5-0.2,13.8-3.2,19.3
		c-2.3-3.4-5.5-6.1-9.2-7.8c-2.2-0.9-9.5-2-11.6,0.7c-0.7,0.9-1.1,2.4,0.6,4.7c2.4,3.4,8.4,8.3,13.9,8.6c2.3,0.2,4.5-0.6,6.1-2.2
		c0.3,0.7,0.6,1.5,0.9,2.2c0.7,2.6,1.9,5,3.4,7.1c0,1.2,0,2.4,0,3.6v1.4c0,2.2-0.2,8.1-3.8,11.5c-2.4,2.2-5.6,2.5-9,2.7
		c-0.9,0-1.9,0.1-2.8,0.2c-5.2,0.6-10.2,1.9-15.1,3.7l-1,0.3c-5.3,1.7-10.4,3.7-9.7,6.6c0.3,1,1.1,1.7,2.1,2
		c1.7,0.2,3.5,0.1,5.2-0.4c0.6-0.1,1.2-0.2,1.7-0.3c2.9-0.4,5.9-0.7,8.9-1.1c10.8-1.2,21.9-2.2,33.1-2.7c5.4-0.3,10.9-0.4,16.3-0.6
		h2.8c4.9-0.2,10.5-0.5,13.8,3.1c1.4,1.4,1.9,3.5,1.3,5.4c-1.4,3.5-5.2,3.7-10.3,3.5h-2.4l-20.2,0.1c-3.9,0-7.8,0-11.7-0.1
		c-10.3-0.3-20.6-0.1-30.9,0.6c-2.1,0-4,1.1-5.2,2.8c-2,3.5-0.2,9.2,1.7,13.5c3.2,7.6,8.4,14.3,14.9,19.4c6.3,4.2,13.7,6.4,21.3,6.2
		c3.5,0,7.1-0.4,10.5-1.2c9.9-2.4,17.3-7.8,21-15.2c2.6-5.1,4.8-10.5,4-16.2l-2.2,0.3c0.7,5.1-1.4,10.2-3.7,14.9
		c-3.4,6.7-10.3,11.8-19.5,14c-10.8,2.6-22.5,0.8-29.9-4.5c-6.2-4.9-11.1-11.2-14.2-18.5c-2.4-5.2-3-9.3-1.8-11.2
		C-126.1,104.4-124.8,103.6-123.4,103.6z M-88.9,57.7c2.8-6.2,10.7-9.8,17.2-12c2.1-0.8,4.3-1.4,6.5-1.9l1.1-0.3
		c0.3,0,0.8-0.3,1.4-0.5c0.6-0.2,2.2-0.8,3.2-1.1c-0.1,6.7-3.4,13-9,16.8c-4.7,3.2-10.3,4.8-16,4.5c-2-0.1-3.8-0.9-5.2-2.2
		C-89.6,59.8-89.4,58.7-88.9,57.7z M-97.8,50.5c-1.1,1.3-2.8,1.9-4.5,1.8c-4.5-0.3-10-4.7-12.2-7.7c-0.3-0.4-1-1.6-0.7-2
		c1-0.7,2.3-1,3.5-0.8c1.9,0,3.7,0.3,5.5,0.9c3.6,1.6,6.7,4.3,8.7,7.7L-97.8,50.5z"/>
</g>
<g>
	<path d="M112.6,22.9c-6.5-5.5-14.2-9.5-22.4-11.7c-8.5-2.1-19.9-2-24.5,5c-2.7,4.4-1.6,10,2.5,13.1c-2.8,2.9-5.8,2-9.2,1
		c-3.4-1-6.9-2-10,0.9L48.1,32l0.8,0.9c1.9,2.2,4.3,7.5,2.9,9.5c-0.5,0.7-1.1,1.4-1.6,2c-1.4,1.3-2.3,3.1-2.5,5
		c0.3,1.5,1.2,2.8,2.5,3.7c0.6,0.5,1.2,0.9,1.9,1.3c-3.7,2.3-6.8,5.5-9.1,9.3c-2.7,5-4.1,12.2,0.8,16.5c1.8,1.5,3.9,2.7,6.2,3.4
		c2.6,0.6,4.9,2,6.5,4.1c2.7,3.9,3.3,8.7,4,13.9c0.3,3.5,1.1,6.9,2.1,10.3c1.5,4.3,3.9,6.7,6.9,7.2c5.9,1,11.8-5.7,13.4-7.7l0.9-1.1
		l1-1.2c0.3,0.6,0.7,1.2,1.2,1.7c1.6,1.9,4.2,2.6,6.6,1.7c4.3-1.6,7.5-7.9,7.6-11.6c0.1-1-0.1-2.1-0.7-2.9c-1.1-1.3-3-1.5-5.2-0.4
		c-1.1,0.5-2.2,1.1-3.3,1.8l0.1-0.2c2.1-3.5,3.2-7.5,3.1-11.6c0-1.4-0.1-2.7-0.3-4c2.2-0.3,4.4-0.8,6.4-1.7
		c4.9-2.2,8.8-6.3,10.7-11.3c0.1-0.5,0.2-1.1,0.3-1.7c3.7-0.5,7.5-0.1,11.1,1.1c2.4,0.8,4.3,2.8,5,5.3c0.2,0.6,0.4,1.1,0.5,1.7
		c0.5,2.1,1.2,5,4,5.7l0.6-2.5c-1.3-0.3-1.7-1.7-2.2-3.9c-0.1-0.7-0.3-1.3-0.6-2c-0.9-3.1-3.2-5.6-6.3-6.7c-3.9-1.3-8-1.8-12.1-1.2
		c-0.2-1.1-0.7-2.2-1.3-3.2c-1.7-2-4.3-2.9-6.8-2.5c-1.9,0-3.7,1-4.6,2.7c-0.5,1.3-0.2,2.7,0.7,3.7c1,1.1,2.4,1.7,3.9,1.8
		c1.9,0.2,3.9,0.3,5.8,0.1c0,0.3,0,0.6-0.2,0.9c-1.7,4.3-5.1,7.8-9.4,9.7c-1.9,0.8-3.8,1.4-5.9,1.6c-1.1-6-5.4-10.9-11.2-12.8
		c-3.6-1-5,0.6-5.5,1.7c-1.4,2.9,0.6,8.1,3.2,10c3.3,2.4,7.3,3.7,11.4,3.7l0,0c0.2,1.3,0.3,2.6,0.2,3.9c0,3.6-0.9,7.2-2.8,10.2
		c-0.3,0.5-0.7,1.2-1.2,1.8c-1.2,1.6-2.2,3.5-3,5.4l-2.8,3.6l-0.9,1.1c-2.8,3.5-7.5,7.5-11.1,6.8c-2.1-0.3-3.8-2.2-5-5.6
		c-1-3.2-1.7-6.4-2-9.7c-0.7-5.2-1.4-10.6-4.4-14.9c-2-2.5-4.7-4.2-7.8-5c-2-0.6-3.8-1.5-5.4-2.7c-3.8-3.4-2.5-9.4-0.3-13.5
		c2.2-3.7,5.2-6.8,8.9-9c5.5,2.7,11.4,4.5,17.4,5.5c3.6,0.6,14.1,1.3,18.7-2.8c1.6-1.4,2.4-3.5,2.2-5.6c-0.3-4.4-5.2-6.6-9.7-6.8
		c-10-0.2-19.8,2.1-28.6,6.9c-1-0.6-1.9-1.3-2.8-2s-1.4-1.4-1.5-1.9s0.9-2,2-3.2c0.6-0.7,1.2-1.4,1.7-2.2c2.3-3.2-0.3-8.8-2.2-11.6
		c1.8-1.1,3.9-0.6,6.8,0.3c3.6,1.1,8.1,2.5,12.2-2.2c3.6,1.2,7.6,0.3,10.3-2.4c1.7-1.5,2.2-4,1.3-6c-1.1-1.6-3.2-2.3-5.1-1.6
		c-3,0.7-5,3.7-6.6,6.1l-0.6,0.8c-1.4-1-2.4-2.6-2.8-4.3c-0.5-1.9-0.2-3.9,0.8-5.5c3.8-6,14.2-5.9,21.8-4
		c7.9,2.1,15.2,5.9,21.5,11.2c11.8,9.6,24.4,21.9,27.7,40.8c0.8,4.7,1.2,9.5,1.1,14.2c-0.1,17.7-8.8,34.2-23.2,44.4
		c-18.1,12.8-41,16.6-62.3,10.3c-16.4-5.2-29.8-17-37.1-32.6c-7.8-16.6-8-35.8-0.7-52.6c6.5-14.8,16.8-25.7,32.4-34.1l-1.2-2.2
		C31.2,21.8,20.5,33,13.7,48.4c-7.6,17.5-7.3,37.4,0.8,54.7c7.6,16.2,21.6,28.5,38.6,33.9c22,6.5,45.8,2.6,64.5-10.7
		c15-10.7,24-28,24.1-46.4c0.1-4.9-0.3-9.8-1.2-14.7C137.7,45.3,124.2,32.1,112.6,22.9z M103.5,66.3c-0.8,0-1.6-0.3-2.2-0.9
		c-0.3-0.3-0.5-0.8-0.4-1.2c0.6-0.8,1.5-1.2,2.5-1.2h0.9c1.4-0.1,2.9,0.5,3.8,1.6c0.4,0.6,0.7,1.2,0.9,1.9
		C107.2,66.5,105.3,66.5,103.5,66.3z M81.6,78c-2-1.7-2.9-4.4-2.5-7c0.3-0.5,0.8-0.7,1.3-0.6c0.5,0,0.9,0.1,1.4,0.2
		c4.8,1.6,8.3,5.6,9.3,10.6C87.7,81.2,84.4,80.1,81.6,78L81.6,78z M87.2,106.1c2.2-2.8,5.1-5,8.2-6.6c1.1-0.5,2-0.6,2.3-0.2
		c0.2,0.4,0.2,0.8,0.1,1.2c-0.2,2.9-2.8,8.2-6,9.4c-1.4,0.5-3,0-3.9-1.1C87.2,108.1,86.9,107.1,87.2,106.1z M82.6,48.8
		c2.8,0,7.1,1.4,7.3,4.5c0.2,1.3-0.3,2.7-1.3,3.6c-3.5,3.2-12.7,2.9-16.6,2.2c-5.2-0.9-10.3-2.4-15.2-4.5
		C64.8,50.6,73.6,48.6,82.6,48.8z M72.3,27.9c1.4-2.1,3.1-4.6,5-5c1.2-0.3,2.1,0,2.5,0.5c0.3,1.1,0,2.3-0.9,3c-1.8,1.8-4.5,2.6-7,2
		L72.3,27.9z"/>
</g>
<g>
	<path d="M-208.1,75.8c1.9-6.6,0-12.8-6.1-18.5c-0.6-0.6-1.8-1.4-3.3-2.6c-7-5.1-10.2-8.2-9.4-9.3c0.8-1.1,2.6-1.3,4.7-1.3
		c1,0,2.1-0.1,3.1-0.3c4.2-1.1,7.4-4.6,8-9c0.7-5-0.7-10-3.9-13.9c-3.1-3.6-6.8-6.6-11-8.9c-1.9-1.4-4.2-2.2-6.5-2.5
		c-4.1,0.4-7.7,2.9-9.4,6.6c-0.5,0.9-0.9,2-1.4,3.2c-1.3,3.1-3.1,7.4-5.5,8.4c-0.9,0.3-1.8,0.2-2.6-0.2c-2.5-1.5-4.7-3.5-6.5-5.9
		c-0.9-1.1-1.8-2.1-2.6-2.9l-1.9-2.1c-4.6-4.9-11-11.7-18.3-5.4c-6.3,5.4-11.4,12.1-15,19.5c-1.4,2.1-1.6,4.8-0.7,7.1
		c0.9,1.4,2.3,2.5,4,2.8c2,0.5,4.1,0.8,6.2,0.8c2.2,0,4.3,0.3,6.4,1c5,2.1,7.1,8.4,6.1,13.2c-1.5,5.4-4.8,10-9.5,13.1
		c-2.8,2.3-6.2,3.7-9.7,4.3c-3.4,0.5-6.9-0.7-9.2-3.2c-1.3-1.8-1.7-4.1-1-6.2c0.5-2.2,0.4-4.5-0.4-6.6c-1.7-3-4.1-5.5-7-7.3
		c-1.2-0.9-2.3-1.7-3.3-2.6l-1.8,1.9c1.1,1,2.3,1.9,3.4,2.6c2.6,1.5,4.7,3.7,6.2,6.3c0.6,1.7,0.7,3.5,0.2,5.2
		c-0.9,2.9-0.3,6.1,1.5,8.5c2.9,3.2,7.2,4.7,11.5,4.1c4-0.6,7.8-2.3,11-4.8c5.2-3.5,8.9-8.7,10.5-14.8c1.2-5.9-1.4-13.5-7.6-16.1
		c-2.3-0.8-4.6-1.2-7-1.3c-1.9,0-3.7-0.3-5.5-0.7c-1-0.2-1.9-0.8-2.5-1.6c-0.6-1-0.3-2.6,0.7-4.7c3.5-7.1,8.4-13.5,14.4-18.7
		c5-4.3,9.2-0.5,14.7,5.2l2,2.1c0.8,0.8,1.6,1.8,2.5,2.7c2,2.7,4.5,4.9,7.4,6.6c1.5,0.7,3.2,0.8,4.7,0.2c3.4-1.4,5.4-6.1,6.9-9.9
		c0.5-1.1,0.9-2.2,1.3-3c1.3-2.9,3.9-4.9,7.1-5.2c1.9,0.2,3.7,1,5.2,2.1c3.9,2.2,7.3,5,10.2,8.4c2.8,3.3,4,7.5,3.4,11.8
		c-0.5,3.3-2.8,6-6,6.9c-0.9,0.1-1.7,0.2-2.6,0.2c-2.5-0.3-5,0.6-6.7,2.4c-2.6,3.7,4.4,8.8,10,12.9c1.4,1,2.6,1.8,3,2.3
		c5.2,5,7,10.3,5.4,15.9s-5.6,9.9-10.2,14.6c-3.3,3.4-5.7,4.3-8.4,2.9c-1.9-1.1-3.5-2.7-4.7-4.5c-5.7-7.8-12.6-9.7-20.4-5.7
		c-2.7,1.4-9.4,5.2-11.3,10.1c-2.6,6.9,4.3,15.2,9.7,19.2c2.4,1.8,5.5,3.9,5.7,6.2c0,1.4-0.5,2.7-1.6,3.6
		c-4.5,4.9-9.2,9.5-14.2,13.9c-0.7,0.7-1.6,1.1-2.6,1c-2.1-0.2-4.3-2.9-6.1-5.2c-0.8-0.9-1.5-1.8-2.1-2.6c-3.4-3.5-6.8-7-10.1-10.5
		c-0.4-0.4-0.8-0.9-1.3-1.5c-1.9-2.3-4.4-5.5-7.4-5.2s-3.5,2.6-3.9,4.2c-0.1,0.5-0.2,0.9-0.4,1.3c-2.4,6.8-5.9,13.8-14,13.3
		c-6.4-0.8-11.8-5.2-13.9-11.4c-1.4-3.9-0.1-8.3,3.3-10.7c1-0.7,2-1.4,3.1-2c3.2-1.7,6.8-3.7,6.6-8.5c-0.2-2.6-1.1-5.1-2.6-7.3
		c-2.5-3.5-5.2-6.8-8.3-9.7l-0.6-0.6c-0.5-0.5-1.2-1.1-1.9-1.8c-2.1-1.6-3.8-3.7-5-6c-0.3-0.9,0-3.7,7.2-10.3l-1.8-2
		c-6.2,5.6-8.9,9.8-8,13.1c1.2,2.9,3.2,5.4,5.7,7.2c0.7,0.6,1.3,1.2,1.8,1.7l0.6,0.6c3,2.8,5.7,6,8,9.3c1.3,1.7,2.1,3.7,2.3,5.8
		c0,3.1-1.9,4.3-5.2,6.1c-1.2,0.6-2.4,1.4-3.5,2.2c-4.3,3.1-6,8.7-4.2,13.7c2.4,7.2,8.7,12.4,16.3,13.3c9.8,0.6,14.1-7.8,16.7-15.1
		c0.2-0.5,0.3-1.1,0.4-1.6c0.4-1.8,0.7-2.1,1.5-2.2c1.6,0,3.8,2.6,5.2,4.3c0.5,0.7,1,1.3,1.4,1.7c3.4,3.5,6.7,7,10.2,10.5
		c0.6,0.6,1.3,1.5,2,2.3c2.2,2.6,4.7,5.8,7.8,6.1h0.5c1.5,0,2.9-0.6,4-1.7c5.1-4.4,9.9-9,14.5-14c1.5-1.5,2.3-3.5,2.2-5.6
		c-0.4-3.5-3.9-6-6.8-8.1c-4.5-3.3-10.8-10.6-8.8-16c1.7-4.3,8.2-7.8,10.1-8.8c6.7-3.4,12.1-1.8,17.1,5c1.4,2.1,3.3,3.9,5.5,5.2
		c4.8,2.6,8.6-0.5,11.5-3.4C-214.1,86.6-209.9,81.9-208.1,75.8z"/>
</g>
</svg>
