<svg id="Layer_1" data-name="Layer 1" xmlns="http://www.w3.org/2000/svg" viewBox="0 0 150 150"><path d="M43.77,98.68l1.37-1.53C24.83,80,25.22,56.87,32.3,41,39.74,24.39,58,9.21,82,12.56a44.68,44.68,0,0,1,31,18.87c5.17,7.67,8.18,17.68,9,29.68A55.93,55.93,0,0,1,119.86,82C116,93.87,106.69,101.1,96.07,100.59A14.86,14.86,0,0,1,83.94,93.7a19.83,19.83,0,0,1-2.29-9.84,37.78,37.78,0,0,1,.47-6.55,60,60,0,0,0,6.36-1.25c3.69-.94,8.29-2.5,11-6.36a10.4,10.4,0,0,0,1.59-8A7,7,0,0,0,97.85,57a6.48,6.48,0,0,0-5.09-.62,15.07,15.07,0,0,0-8.14,7.17,39.66,39.66,0,0,0-4.28,11.89A57.27,57.27,0,0,1,70,75.65a28.92,28.92,0,0,0-6.65-11.72A13.71,13.71,0,0,0,54.28,59a7.62,7.62,0,0,0-7.86,6.78c-.15,4,3.16,7.38,8.86,9.23a61.93,61.93,0,0,0,13.21,2.67,23.58,23.58,0,0,1,.4,8.16,19.36,19.36,0,0,1-12.72,16c-.85.23-1.72.4-2.59.57A19.28,19.28,0,0,0,48.45,104a5.74,5.74,0,0,0-3.64,4.47,5.44,5.44,0,0,0,2.67,4.77c2.73,2.12,10.34,1.28,22.58-.17,11.81-1.39,26.48-3.15,30.23.45a2.78,2.78,0,0,1,.85,2.33,2.29,2.29,0,0,1-.89,1.53c-3,2.58-12.11,2.73-15.08,2.5l-3.35-.32c-6.89-.72-14-1.46-19.91,3.54-1.52,1.32-2.12,2.59-1.67,3.8,1,2.82,7.55,3.39,11.36,3.47h2c2.8,0,6.36,0,8.16,1.55,1.27,1.17,1.84,2.38,1.57,3.37s-1.51,1.76-3.24,2.12a31,31,0,0,1-13.34-.8l-.59,2.12a33.19,33.19,0,0,0,14.26.87,5.62,5.62,0,0,0,4.94-3.54,5.49,5.49,0,0,0-2.12-5.54c-2.48-2.12-6.36-2.12-9.6-2.12H71.73c-5.41-.12-9.07-1.16-9.39-2.12,0-.15,0-.63,1-1.46,5.19-4.41,11.87-3.73,18.32-3l3.39.34s12.19.78,16.62-3a4.27,4.27,0,0,0,1.61-3,4.77,4.77,0,0,0-1.78-4.12c-4.47-4.24-18.45-2.63-31.95-1-9.27,1.11-18.87,2.25-21.05.6a3.61,3.61,0,0,1-1.83-2.91c0-1,1-2,2.51-2.75a17.36,17.36,0,0,1,4.57-1.38,28.28,28.28,0,0,0,2.76-.62c7.29-2.12,13.17-9.41,14.29-17.78a25.35,25.35,0,0,0-.32-8.29,60.48,60.48,0,0,0,9.42-.24,42.35,42.35,0,0,0-.39,6.36,21.77,21.77,0,0,0,2.59,10.9A17,17,0,0,0,96,102.77c11.58.59,21.78-7.25,25.91-20A57.73,57.73,0,0,0,124,61c-.8-12.41-3.94-22.75-9.33-30.77A46.78,46.78,0,0,0,82.23,10.5C57.12,6.94,38,22.84,30.28,40.19A48.89,48.89,0,0,0,43.77,98.68ZM86.7,64.59a12.85,12.85,0,0,1,6.85-6.19,5.29,5.29,0,0,1,1.31-.17,4.25,4.25,0,0,1,2.12.59,5,5,0,0,1,2.23,3.35A8.36,8.36,0,0,1,98,68.53c-2.36,3.33-6.49,4.71-9.82,5.56-1.82.44-3.64.82-5.49,1.1A37.63,37.63,0,0,1,86.7,64.59ZM55.94,73.07c-1.78-.55-7.57-2.76-7.4-7.1A5.56,5.56,0,0,1,54,61.11h.19a11.67,11.67,0,0,1,7.69,4.24,26.38,26.38,0,0,1,5.9,10.07,58.15,58.15,0,0,1-12-2.46Z"/></svg>