<?xml version="1.0" encoding="utf-8"?>
<!-- Generator: Adobe Illustrator 25.2.1, SVG Export Plug-In . SVG Version: 6.00 Build 0)  -->
<svg version="1.1" id="Layer_1" xmlns="http://www.w3.org/2000/svg" xmlns:xlink="http://www.w3.org/1999/xlink" x="0px" y="0px"
	 viewBox="0 0 150 150" style="enable-background:new 0 0 150 150;" xml:space="preserve">
<style type="text/css">
	.st0{fill-rule:evenodd;clip-rule:evenodd;}
</style>
<g>
	<path d="M41.1,100.3c10.2-0.7,20.4-0.9,30.7-0.6c3.9,0,7.8,0.1,11.7,0.1l20.2-0.1h2.2c4.4,0.2,10.3,0.4,12.5-4.9
		c0.9-2.7,0.3-5.8-1.7-7.9c-4-4.5-10.2-4.1-15.6-3.9h-2.7c-5.5,0.1-11,0.3-16.4,0.6c-11.2,0.6-22.5,1.5-33.2,2.7
		c-3,0.3-5.9,0.7-9,1.1l-1.9,0.3c-1.4,0.4-2.8,0.5-4.2,0.4c-0.2,0-0.3-0.1-0.4-0.3c0-0.4,1-1.6,8.2-3.9l1.1-0.4
		c4.7-1.8,9.5-3,14.5-3.6c0.9,0,1.8-0.1,2.7-0.2c3.7-0.2,7.5-0.4,10.5-3.3c3.2-3.6,4.9-8.3,4.5-13.1v-1.4c0-0.5,0-1.1,0-1.6
		c1.6,0.9,3.3,1.5,5.1,1.6c6.2,0.3,12.3-1.4,17.4-4.9c6.6-4.4,10.4-12,10-19.9v-0.7l-0.6-0.3c-1-0.4-2.5,0-5.5,1.1l-1.2,0.4L98.7,38
		c-2.2,0.6-4.5,1.2-6.7,2c-6.9,2.7-15.3,6.4-18.5,13.6c-0.3,0.6-0.5,1.1-0.6,1.7c-0.7-1.4-1.3-2.9-1.8-4.5c-0.4-1.2-0.9-2.4-1.5-3.6
		c3.9-6,4.1-15.9,4.2-21.5c0-0.6,0-1.3,0-2c0-3.4-0.2-9.2,2.1-11c0.9-0.6,2.1-0.8,3.1-0.4c1.3,0.3,2.3,1.5,2.5,2.9
		c0.4,1.6-0.1,3.2-1.3,4.3c-0.5,0.4-1.2,0.4-1.7,0l-1.2,1.9c1.2,0.8,2.9,0.8,4.1,0c1.9-1.6,2.7-4.1,2.2-6.5
		c-0.3-2.2-1.9-4.1-4.1-4.7c-1.7-0.6-3.6-0.3-5.1,0.8c-3.1,2.4-3,8.6-2.9,12.7c0,0.7,0,1.4,0,2c0,5-0.2,13.8-3.2,19.3
		c-2.3-3.4-5.5-6.1-9.2-7.8c-2.2-0.9-9.5-2-11.6,0.7c-0.7,0.9-1.1,2.4,0.6,4.7c2.4,3.4,8.4,8.3,13.9,8.6c2.3,0.2,4.5-0.6,6.1-2.2
		c0.3,0.7,0.6,1.5,0.9,2.2c0.7,2.6,1.9,5,3.4,7.1c0,1.2,0,2.4,0,3.6v1.4c0,2.2-0.2,8.1-3.8,11.5c-2.4,2.2-5.6,2.5-9,2.7
		c-0.9,0-1.9,0.1-2.8,0.2c-5.2,0.6-10.2,1.9-15.1,3.7l-1,0.3c-5.3,1.7-10.4,3.7-9.7,6.6c0.3,1,1.1,1.7,2.1,2
		c1.7,0.2,3.5,0.1,5.2-0.4c0.6-0.1,1.2-0.2,1.7-0.3c2.9-0.4,5.9-0.7,8.9-1.1C59.9,87.5,71,86.5,82.2,86c5.4-0.3,10.9-0.4,16.3-0.6
		h2.8c4.9-0.2,10.5-0.5,13.8,3.1c1.4,1.4,1.9,3.5,1.3,5.4c-1.4,3.5-5.2,3.7-10.3,3.5h-2.4l-20.2,0.1c-3.9,0-7.8,0-11.7-0.1
		c-10.3-0.3-20.6-0.1-30.9,0.6c-2.1,0-4,1.1-5.2,2.8c-2,3.5-0.2,9.2,1.7,13.5c3.2,7.6,8.4,14.3,14.9,19.4c6.3,4.2,13.7,6.4,21.3,6.2
		c3.5,0,7.1-0.4,10.5-1.2c9.9-2.4,17.3-7.8,21-15.2c2.6-5.1,4.8-10.5,4-16.2l-2.2,0.3c0.7,5.1-1.4,10.2-3.7,14.9
		c-3.4,6.7-10.3,11.8-19.5,14c-10.8,2.6-22.5,0.8-29.9-4.5c-6.2-4.9-11.1-11.2-14.2-18.5c-2.4-5.2-3-9.3-1.8-11.2
		C38.4,101.1,39.7,100.3,41.1,100.3z M75.6,54.4c2.8-6.2,10.7-9.8,17.2-12c2.1-0.8,4.3-1.4,6.5-1.9l1.1-0.3c0.3,0,0.8-0.3,1.4-0.5
		c0.6-0.2,2.2-0.8,3.2-1.1c-0.1,6.7-3.4,13-9,16.8c-4.7,3.2-10.3,4.8-16,4.5c-2-0.1-3.8-0.9-5.2-2.2C74.9,56.5,75.1,55.4,75.6,54.4z
		 M66.7,47.2c-1.1,1.3-2.8,1.9-4.5,1.8c-4.5-0.3-10-4.7-12.2-7.7c-0.3-0.4-1-1.6-0.7-2c1-0.7,2.3-1,3.5-0.8c1.9,0,3.7,0.3,5.5,0.9
		c3.6,1.6,6.7,4.3,8.7,7.7L66.7,47.2z"/>
</g>
</svg>
