<svg id="Layer_1" data-name="Layer 1" xmlns="http://www.w3.org/2000/svg" viewBox="0 0 150 150"><path d="M138.61,76.94c1.93-6.58,0-12.8-6.09-18.5-.63-.57-1.78-1.44-3.27-2.61-7-5.07-10.19-8.21-9.43-9.28s2.61-1.25,4.7-1.31A19.93,19.93,0,0,0,127.6,45a10.94,10.94,0,0,0,8-9,17.58,17.58,0,0,0-3.89-13.85,40.53,40.53,0,0,0-11-8.91,13.58,13.58,0,0,0-6.53-2.48,11.51,11.51,0,0,0-9.44,6.61,34.14,34.14,0,0,0-1.43,3.21c-1.28,3.14-3.06,7.45-5.52,8.42a3.3,3.3,0,0,1-2.61-.18,23.11,23.11,0,0,1-6.51-5.91c-.89-1.07-1.78-2.06-2.61-2.9l-1.94-2.07c-4.62-4.93-11-11.68-18.29-5.38a62.33,62.33,0,0,0-15,19.5,7.83,7.83,0,0,0-.66,7.13,6.5,6.5,0,0,0,4,2.85,26.81,26.81,0,0,0,6.17.84,19.08,19.08,0,0,1,6.4,1c5,2.09,7.06,8.36,6.09,13.22A22.81,22.81,0,0,1,63.37,70.2a20.83,20.83,0,0,1-9.75,4.31,10.45,10.45,0,0,1-9.22-3.16,7.1,7.1,0,0,1-1-6.25A11.21,11.21,0,0,0,43,58.47a20.14,20.14,0,0,0-7-7.32,33.4,33.4,0,0,1-3.27-2.61l-1.75,1.93a27.92,27.92,0,0,0,3.45,2.61,17.47,17.47,0,0,1,6.22,6.3,9.14,9.14,0,0,1,.24,5.23,9.46,9.46,0,0,0,1.51,8.52,13.08,13.08,0,0,0,11.53,4.05,23.42,23.42,0,0,0,11-4.79A25.4,25.4,0,0,0,75.29,57.63c1.17-5.88-1.36-13.54-7.63-16.12a21.39,21.39,0,0,0-7-1.26,23.52,23.52,0,0,1-5.54-.73A4.1,4.1,0,0,1,52.6,37.9c-.57-1-.34-2.61.73-4.7a59.75,59.75,0,0,1,14.4-18.69c5-4.31,9.23-.55,14.66,5.23l2,2.11c.79.79,1.62,1.76,2.48,2.75a24.28,24.28,0,0,0,7.4,6.58,5.92,5.92,0,0,0,4.7.24c3.45-1.39,5.39-6.09,6.93-9.85.5-1.15.91-2.2,1.33-3a8.86,8.86,0,0,1,7.06-5.23,11.16,11.16,0,0,1,5.22,2.09,37.78,37.78,0,0,1,10.2,8.42,14.92,14.92,0,0,1,3.39,11.76,8.28,8.28,0,0,1-6,6.87,17.71,17.71,0,0,1-2.62.23,7.86,7.86,0,0,0-6.74,2.43c-2.61,3.72,4.37,8.81,10,12.89a29.19,29.19,0,0,1,3,2.27c5.22,5,7,10.32,5.38,15.89s-5.57,9.88-10.22,14.63c-3.32,3.43-5.75,4.26-8.36,2.88a14.85,14.85,0,0,1-4.68-4.52c-5.7-7.84-12.57-9.72-20.41-5.75-2.74,1.38-9.35,5.23-11.34,10.14-2.61,6.92,4.29,15.23,9.67,19.15,2.43,1.75,5.46,4,5.7,6.25a4.61,4.61,0,0,1-1.57,3.55A166.56,166.56,0,0,1,80.7,136.42a3.43,3.43,0,0,1-2.62,1c-2.09-.18-4.28-2.9-6.06-5.23-.76-.94-1.49-1.83-2.14-2.61-3.43-3.48-6.8-6.95-10.14-10.45a19.76,19.76,0,0,1-1.31-1.55c-1.86-2.32-4.42-5.54-7.42-5.22s-3.53,2.61-3.92,4.21a12.5,12.5,0,0,1-.37,1.33c-2.4,6.84-5.93,13.82-14,13.33a17,17,0,0,1-13.88-11.37,9.26,9.26,0,0,1,3.32-10.74,21.69,21.69,0,0,1,3.14-2c3.19-1.73,6.77-3.69,6.58-8.5a14.42,14.42,0,0,0-2.61-7.26A64.38,64.38,0,0,0,20.9,81.7l-.62-.63c-.53-.55-1.18-1.15-1.88-1.78a17.52,17.52,0,0,1-5-6c-.26-.91,0-3.73,7.19-10.27l-1.81-2c-6.24,5.62-8.86,9.83-8,13.07a17.88,17.88,0,0,0,5.73,7.21c.65.6,1.28,1.18,1.77,1.7l.6.63A61.59,61.59,0,0,1,27,93a11.81,11.81,0,0,1,2.3,5.77c0,3.06-1.91,4.31-5.23,6.14a26.19,26.19,0,0,0-3.5,2.17,12,12,0,0,0-4.18,13.67A19.6,19.6,0,0,0,32.61,134c9.83.57,14.09-7.84,16.67-15.08a16,16,0,0,0,.45-1.6c.44-1.83.65-2.14,1.54-2.22,1.59,0,3.79,2.62,5.23,4.31.52.68,1,1.28,1.43,1.73,3.37,3.53,6.75,7,10.17,10.45.63.63,1.28,1.46,2,2.3,2.19,2.61,4.67,5.8,7.84,6.09h.47a6.1,6.1,0,0,0,4-1.67,170.63,170.63,0,0,0,14.48-14,7.32,7.32,0,0,0,2.24-5.6c-.36-3.47-3.91-6-6.76-8.1-4.55-3.32-10.85-10.61-8.78-16,1.69-4.29,8.15-7.84,10.11-8.78,6.69-3.37,12.12-1.81,17.12,5A17.37,17.37,0,0,0,116.29,96c4.81,2.61,8.65-.47,11.47-3.37C132.65,87.66,136.83,83,138.61,76.94Z"/></svg>