<svg id="Layer_1" data-name="Layer 1" xmlns="http://www.w3.org/2000/svg" viewBox="0 0 150 150"><path d="M22.22,95.17c2.3,0,4.7-.2,7-.4a121.68,121.68,0,0,1,13.5-.3h1.6V96c.5,6.9,5,14.8,12.5,16.6,4,1,9.1-.8,10.2-4.8.8-3-.8-6.4-4.3-9.1a32.56,32.56,0,0,0-16.2-6.2A49.17,49.17,0,0,1,50.92,77c2.2-4.9,4.7-9.7,7.4-14.4A42.58,42.58,0,0,1,76.62,71,69.73,69.73,0,0,1,95,90.07,59.62,59.62,0,0,1,75.42,102l.8,2.1A64.42,64.42,0,0,0,96.12,92a26.82,26.82,0,0,1,4.2,14.3,23.66,23.66,0,0,1-8.2,16.2,77.88,77.88,0,0,1-15,9.9c-.2-.7-.4-1.7-.6-2.7a30.35,30.35,0,0,0-3.1-10.1,10.27,10.27,0,0,0-5-4.2c-4.1-1.3-8.2,1.5-10.3,4.7a26,26,0,0,0-2.8,6.1c-.5,1.3-1,2.6-1.6,3.8a8.72,8.72,0,0,1-3.5,4.1,3.37,3.37,0,0,1-4.2-.7c-.2-.4-.4-.7-.6-1.1a10.93,10.93,0,0,0-.8-1.5c-1.9-2.7-5.9-2.5-8.5-.7a20.47,20.47,0,0,0-3.7,3.5c-.7.8-1.3,1.5-1.9,2.2a5.55,5.55,0,0,1-5.9,1.7c0-.2.1-.3.2-.5a27.49,27.49,0,0,1,3.6-5.3,28.61,28.61,0,0,0,4-6.2,3.36,3.36,0,0,0,.4-2.2,3.55,3.55,0,0,0-4-2.7,7.32,7.32,0,0,0-2.5.8l-1.2.4c-.7.2-1.7.2-1.8.3a14.31,14.31,0,0,1,1.1-1.5c.2-.2.4-.5.6-.6.6-.9,1.3-1.7,2-2.6l2.2-2.8.3-.4a42.22,42.22,0,0,0,7.4-12.6l-2.2-.7a40.5,40.5,0,0,1-7.1,12l-.3.4a30.13,30.13,0,0,1-2.2,2.8l-2,2.6c-.1.2-.3.3-.4.5-.8.9-2,2.2-1.6,3.4a2.56,2.56,0,0,0,1,1.3,5.25,5.25,0,0,0,3.5,0,5,5,0,0,0,1.3-.5,6,6,0,0,1,1.9-.6c.8,0,1.5.3,1.6.8a3.55,3.55,0,0,1-.2,1,28.94,28.94,0,0,1-3.7,5.7,27.08,27.08,0,0,0-3.4,5.9,2.36,2.36,0,0,0-.1,2.3,3.46,3.46,0,0,0,1.1,1,5,5,0,0,0,2.4.61,9.09,9.09,0,0,0,5.9-2.7c.7-.7,1.4-1.4,2.1-2.2a15.68,15.68,0,0,1,3.2-3.1c1.7-1.11,4.4-1.4,5.5.19a11.14,11.14,0,0,1,.6,1.11,7.14,7.14,0,0,0,.8,1.5,5.52,5.52,0,0,0,7,1.3,10.45,10.45,0,0,0,4.4-5.1c.6-1.31,1.1-2.7,1.7-4a35.31,35.31,0,0,1,2.6-5.6c1.7-2.6,4.9-4.7,7.7-3.81a8.62,8.62,0,0,1,3.9,3.41,27.28,27.28,0,0,1,2.8,9.19c.6,3.4.9,5,2.4,4.81A71.46,71.46,0,0,0,94,124.27a26.29,26.29,0,0,0,8.8-17.69A29.15,29.15,0,0,0,98,90.67a81.07,81.07,0,0,0,15.9-21c8-15,17.2-35,16.8-56.7a2.74,2.74,0,0,0-.8-2.3,2.72,2.72,0,0,0-1.7-.6c-8.2-.8-17.1,1.6-27.3,7.2a117.83,117.83,0,0,0-43.5,43.2,32.7,32.7,0,0,0-4.2,0,32.1,32.1,0,0,0-20.5,11,99.51,99.51,0,0,0-12.8,19.3c-1.2,2.2-.5,3.4,0,4A3,3,0,0,0,22.22,95.17Zm79.7-76.1c9.8-5.4,18.3-7.6,26.1-6.9h.5a.85.85,0,0,1,0,.7c.3,21.2-8.7,40.8-16.6,55.6a78.9,78.9,0,0,1-15.2,20.1A72.66,72.66,0,0,0,78,69.37a44.73,44.73,0,0,0-18.3-8.6A115.57,115.57,0,0,1,101.92,19.07Zm-40.4,81.5c1,.8,4.4,3.7,3.5,6.8-.7,2.8-4.6,3.9-7.5,3.2-6.5-1.5-10.3-8.5-10.8-14.6v-1.1A32.06,32.06,0,0,1,61.52,100.57Zm-39.8-8.8a94.82,94.82,0,0,1,12.4-18.9,29.89,29.89,0,0,1,19.1-10.2h3a139,139,0,0,0-7,13.9,48,48,0,0,0-4.6,16.1H43a106,106,0,0,0-13.8.3c-2.3.1-4.6.3-6.9.4a1.1,1.1,0,0,1-.8,0,2.61,2.61,0,0,1,.2-1.6Z"/></svg>