<?xml version="1.0" encoding="utf-8"?>
<!-- Generator: Adobe Illustrator 25.2.1, SVG Export Plug-In . SVG Version: 6.00 Build 0)  -->
<svg version="1.1" id="Layer_1" xmlns="http://www.w3.org/2000/svg" xmlns:xlink="http://www.w3.org/1999/xlink" x="0px" y="0px"
	 viewBox="0 0 100 100" style="enable-background:new 0 0 100 100;" xml:space="preserve">
<g>
	<g>
		<path d="M48.4,77.1c2,0,3.8-0.8,5.9-2.4l3,2.8c-3.2,7-9.1,10.9-19,10.9c-11.9,0-18.7-5-18.7-17.9c0-4.7,0.1-8.2,0.1-12.8V37.1
			h-6.8v-7.9l13.9-1.8l-7.7,5.2L28.3,11h14.3v21.8v36.4C42.5,74.6,45.1,77.1,48.4,77.1z M53.6,28.1v9H31.3v-9H53.6z"/>
		<path d="M62.3,76.9c0-6.5,5.2-11.9,11.8-11.9s11.8,5.4,11.8,11.9c0,6.4-5.2,11.5-11.8,11.5S62.3,83.3,62.3,76.9z"/>
	</g>
</g>
</svg>
